<svg 
 xmlns="http://www.w3.org/2000/svg"
 xmlns:xlink="http://www.w3.org/1999/xlink"
 width="46px" height="46px">
<path fill-rule="evenodd"  fill="rgb(252, 252, 252)"
 d="M46.007,43.291 L34.018,31.308 C40.722,23.114 39.510,11.039 31.310,4.338 C23.111,-2.362 11.029,-1.151 4.325,7.044 C-2.379,15.239 -1.167,27.314 7.032,34.014 C14.095,39.786 24.248,39.786 31.310,34.014 L43.300,45.997 L46.007,43.291 ZM19.202,34.515 C10.743,34.515 3.885,27.662 3.885,19.207 C3.885,10.752 10.743,3.898 19.202,3.898 C27.662,3.898 34.519,10.752 34.519,19.207 C34.510,27.658 27.658,34.506 19.202,34.515 Z"/>
</svg>