<svg 
 xmlns="http://www.w3.org/2000/svg"
 xmlns:xlink="http://www.w3.org/1999/xlink"
 width="37px" height="37px">
<path fill-rule="evenodd"  fill="rgb(13, 0, 71)"
 d="M30.050,30.316 L0.047,30.316 L0.047,4.830 C0.047,2.346 2.062,0.333 4.548,0.333 L25.550,0.333 C28.035,0.333 30.050,2.346 30.050,4.830 L30.050,30.316 ZM3.048,27.318 L27.050,27.318 L27.050,4.830 C27.050,4.002 26.378,3.331 25.550,3.331 L4.548,3.331 C3.719,3.331 3.048,4.002 3.048,4.830 L3.048,27.318 ZM33.050,6.605 L33.050,33.315 L6.048,33.315 L6.048,36.313 L36.051,36.313 L36.051,10.827 C36.043,8.928 34.842,7.239 33.050,6.605 Z"/>
</svg>