<svg 
 xmlns="http://www.w3.org/2000/svg"
 xmlns:xlink="http://www.w3.org/1999/xlink"
 width="100px" height="100px">
<defs>
<linearGradient id="PSgrad_0" x1="0%" x2="46.947%" y1="88.295%" y2="0%">
  <stop offset="0%" stop-color="rgb(255,228,0)" stop-opacity="1" />
  <stop offset="100%" stop-color="rgb(231,185,0)" stop-opacity="1" />
</linearGradient>

</defs>
<path fill-rule="evenodd"  fill="url(#PSgrad_0)"
 d="M50.000,100.000 C22.386,100.000 -0.000,77.614 -0.000,50.000 C-0.000,22.386 22.386,-0.000 50.000,-0.000 C77.614,-0.000 100.000,22.386 100.000,50.000 C99.970,77.602 77.601,99.970 50.000,100.000 ZM50.000,8.333 C26.988,8.333 8.333,26.988 8.333,50.000 C8.333,73.012 26.988,91.666 50.000,91.666 C73.011,91.666 91.667,73.012 91.667,50.000 C91.641,26.998 73.001,8.358 50.000,8.333 ZM45.833,70.833 L54.166,70.833 L54.166,79.166 L45.833,79.166 L45.833,70.833 ZM45.833,20.833 L54.166,20.833 L54.166,62.500 L45.833,62.500 L45.833,20.833 Z"/>
</svg>