<svg 
 xmlns="http://www.w3.org/2000/svg"
 xmlns:xlink="http://www.w3.org/1999/xlink"
 width="100px" height="100px">
<defs>
<linearGradient id="PSgrad_0" x1="0%" x2="46.947%" y1="88.295%" y2="0%">
  <stop offset="0%" stop-color="rgb(225,0,25)" stop-opacity="1" />
  <stop offset="100%" stop-color="rgb(182,0,20)" stop-opacity="1" />
</linearGradient>

</defs>
<path fill-rule="evenodd"  fill="url(#PSgrad_0)"
 d="M49.998,100.000 C22.377,100.000 -0.015,77.614 -0.015,50.000 C-0.015,22.386 22.377,-0.000 49.998,-0.000 C77.607,0.030 99.981,22.398 100.011,50.000 C100.011,77.614 77.619,100.000 49.998,100.000 ZM49.998,8.333 C26.980,8.333 8.320,26.988 8.320,50.000 C8.320,73.012 26.980,91.666 49.998,91.666 C73.005,91.641 91.650,73.001 91.675,50.000 C91.675,26.988 73.015,8.333 49.998,8.333 ZM63.722,69.612 L49.998,55.892 L36.273,69.612 L30.380,63.721 L44.105,50.000 L30.380,36.279 L36.273,30.387 L49.998,44.108 L63.722,30.387 L69.615,36.279 L55.891,50.000 L69.615,63.721 L63.722,69.612 Z"/>
</svg>