<svg 
 xmlns="http://www.w3.org/2000/svg"
 xmlns:xlink="http://www.w3.org/1999/xlink"
 width="56px" height="56px">
<path fill-rule="evenodd"  fill="rgb(13, 0, 71)"
 d="M17.500,30.333 C11.701,30.333 7.000,25.632 7.000,19.833 C7.000,14.034 11.701,9.333 17.500,9.333 C23.299,9.333 28.000,14.034 28.000,19.833 C27.993,25.629 23.296,30.327 17.500,30.333 ZM17.500,14.000 C14.278,14.000 11.667,16.611 11.667,19.833 C11.667,23.055 14.278,25.666 17.500,25.666 C20.721,25.666 23.333,23.055 23.333,19.833 C23.333,16.611 20.721,14.000 17.500,14.000 ZM35.000,46.666 C34.992,40.226 29.773,35.008 23.333,35.000 L11.667,35.000 C5.226,35.008 0.007,40.226 -0.000,46.666 L-0.000,56.000 L4.667,56.000 L4.667,46.666 C4.667,42.801 7.800,39.666 11.667,39.666 L23.333,39.666 C27.199,39.666 30.333,42.801 30.333,46.666 L30.333,56.000 L35.000,56.000 L35.000,46.666 ZM40.833,21.000 C35.034,21.000 30.333,16.299 30.333,10.500 C30.333,4.701 35.034,-0.000 40.833,-0.000 C46.632,-0.000 51.333,4.701 51.333,10.500 C51.327,16.296 46.629,20.993 40.833,21.000 ZM40.833,4.666 C37.612,4.666 35.000,7.278 35.000,10.500 C35.000,13.721 37.612,16.333 40.833,16.333 C44.055,16.333 46.666,13.721 46.666,10.500 C46.666,7.278 44.055,4.666 40.833,4.666 ZM56.000,37.333 C55.992,30.893 50.773,25.674 44.333,25.666 L35.000,25.666 L35.000,30.333 L44.333,30.333 C48.199,30.333 51.333,33.467 51.333,37.333 L51.333,46.666 L56.000,46.666 L56.000,37.333 Z"/>
</svg>