<svg 
 xmlns="http://www.w3.org/2000/svg"
 xmlns:xlink="http://www.w3.org/1999/xlink"
 width="43px" height="56px">
<path fill-rule="evenodd"  fill="rgb(13, 0, 71)"
 d="M43.000,46.047 L43.000,56.000 L-0.000,56.000 L-0.000,46.047 C-0.000,40.610 4.443,36.203 9.923,36.203 L21.500,36.203 L33.077,36.203 C38.557,36.203 43.000,40.610 43.000,46.047 ZM15.516,39.484 L9.923,39.484 C6.269,39.484 3.308,42.422 3.308,46.047 L3.308,52.719 L15.342,52.719 L18.062,44.535 L15.516,39.484 ZM19.214,39.484 L20.868,42.765 L22.132,42.765 L23.786,39.484 L19.214,39.484 ZM21.958,46.047 L21.042,46.047 L18.825,52.719 L24.175,52.719 L21.958,46.047 ZM24.938,44.535 L27.657,52.719 L39.692,52.719 L39.692,46.047 C39.692,42.422 36.730,39.484 33.077,39.484 L27.483,39.484 L24.938,44.535 ZM7.448,26.306 C7.173,26.340 6.896,26.359 6.615,26.359 C2.967,26.359 -0.000,23.416 -0.000,19.797 C-0.000,16.178 2.967,13.234 6.615,13.234 L6.615,11.594 C6.615,5.201 11.808,-0.000 18.192,-0.000 L24.807,-0.000 C31.191,-0.000 36.384,5.201 36.384,11.594 L36.384,13.234 C40.033,13.234 43.000,16.178 43.000,19.797 C43.000,23.416 40.033,26.359 36.384,26.359 C36.104,26.359 35.827,26.340 35.552,26.306 C33.520,32.063 27.988,36.203 21.500,36.203 C15.012,36.203 9.480,32.063 7.448,26.306 ZM6.615,21.437 L6.615,16.515 C4.791,16.515 3.308,17.987 3.308,19.797 C3.308,21.606 4.791,23.078 6.615,23.078 C6.646,23.078 6.677,23.077 6.707,23.076 C6.647,22.538 6.615,21.991 6.615,21.437 ZM36.384,23.078 C38.208,23.078 39.692,21.606 39.692,19.797 C39.692,17.987 38.208,16.515 36.384,16.515 L36.384,21.437 C36.384,21.991 36.353,22.538 36.292,23.076 C36.323,23.077 36.353,23.078 36.384,23.078 ZM24.807,3.281 L18.192,3.281 C13.908,3.281 10.374,6.573 9.963,10.773 C12.695,9.180 16.069,9.312 18.648,11.017 L21.500,12.903 L24.248,11.086 C26.915,9.322 30.348,9.275 33.049,10.910 C32.702,6.645 29.138,3.281 24.807,3.281 ZM9.923,21.437 C9.923,27.770 15.116,32.922 21.500,32.922 C27.884,32.922 33.077,27.770 33.077,21.437 L33.077,15.543 C31.715,13.039 28.473,12.235 26.083,13.816 L22.417,16.240 C21.862,16.607 21.138,16.607 20.583,16.240 L16.813,13.747 C14.503,12.219 11.357,12.910 9.923,15.295 L9.923,21.437 ZM21.500,26.359 C22.412,26.359 23.154,25.623 23.154,24.719 L26.461,24.719 C26.461,27.433 24.236,29.641 21.500,29.641 C18.764,29.641 16.538,27.433 16.538,24.719 L19.846,24.719 C19.846,25.623 20.588,26.359 21.500,26.359 Z"/>
</svg>