<svg 
 xmlns="http://www.w3.org/2000/svg"
 xmlns:xlink="http://www.w3.org/1999/xlink"
 width="146px" height="145px">
<defs>
<filter filterUnits="userSpaceOnUse" id="Filter_0" x="0px" y="0px" width="146px" height="145px"  >
    <feOffset in="SourceAlpha" dx="0" dy="0" />
    <feGaussianBlur result="blurOut" stdDeviation="4.583" />
    <feFlood flood-color="rgb(13, 0, 71)" result="floodOut" />
    <feComposite operator="atop" in="floodOut" in2="blurOut" />
    <feComponentTransfer><feFuncA type="linear" slope="0.24"/></feComponentTransfer>
    <feMerge>
    <feMergeNode/>
    <feMergeNode in="SourceGraphic"/>
  </feMerge>
</filter>
<linearGradient id="PSgrad_0" x1="0%" x2="46.947%" y1="88.295%" y2="0%">
  <stop offset="0%" stop-color="rgb(166,122,255)" stop-opacity="1" />
  <stop offset="100%" stop-color="rgb(113,92,211)" stop-opacity="1" />
</linearGradient>

</defs>
<g filter="url(#Filter_0)">
<path fill-rule="evenodd"  fill="url(#PSgrad_0)"
 d="M38.031,22.000 L106.031,22.000 C114.868,22.000 122.031,29.163 122.031,38.000 L122.031,106.000 C122.031,114.836 114.868,122.000 106.031,122.000 L38.031,122.000 C29.195,122.000 22.031,114.836 22.031,106.000 L22.031,38.000 C22.031,29.163 29.195,22.000 38.031,22.000 Z"/>
</g>
<path fill-rule="evenodd"  fill="rgb(255, 255, 255)"
 d="M53.333,74.333 L60.333,74.333 L60.333,79.000 L53.333,79.000 L53.333,74.333 ZM65.000,79.000 L72.000,79.000 L72.000,74.333 L65.000,74.333 L65.000,79.000 ZM53.333,88.333 L60.333,88.333 L60.333,83.667 L53.333,83.667 L53.333,88.333 ZM65.000,88.333 L72.000,88.333 L72.000,83.667 L65.000,83.667 L65.000,88.333 ZM53.333,60.333 L60.333,60.333 L60.333,55.666 L53.333,55.666 L53.333,60.333 ZM65.000,60.333 L72.000,60.333 L72.000,55.666 L65.000,55.666 L65.000,60.333 ZM53.333,69.667 L60.333,69.667 L60.333,65.000 L53.333,65.000 L53.333,69.667 ZM65.000,69.667 L72.000,69.667 L72.000,65.000 L65.000,65.000 L65.000,69.667 ZM100.000,62.666 L100.000,100.000 L44.000,100.000 L44.000,51.000 C44.000,47.134 47.134,44.000 51.000,44.000 L74.333,44.000 C78.199,44.000 81.333,47.134 81.333,51.000 L81.333,55.666 L93.000,55.666 C96.866,55.666 100.000,58.800 100.000,62.666 ZM76.666,51.000 C76.666,49.711 75.622,48.666 74.333,48.666 L51.000,48.666 C49.711,48.666 48.667,49.711 48.667,51.000 L48.667,95.333 L76.666,95.333 L76.666,51.000 ZM95.333,62.666 C95.333,61.378 94.289,60.333 93.000,60.333 L81.333,60.333 L81.333,95.333 L95.333,95.333 L95.333,62.666 ZM86.000,79.000 L90.667,79.000 L90.667,74.333 L86.000,74.333 L86.000,79.000 ZM86.000,88.333 L90.667,88.333 L90.667,83.667 L86.000,83.667 L86.000,88.333 ZM86.000,69.667 L90.667,69.667 L90.667,65.000 L86.000,65.000 L86.000,69.667 Z"/>
</svg>