<svg 
 xmlns="http://www.w3.org/2000/svg"
 xmlns:xlink="http://www.w3.org/1999/xlink"
 width="146.25px" height="145.25px">
<defs>
<filter filterUnits="userSpaceOnUse" id="Filter_0" x="0px" y="0px" width="146px" height="145px"  >
    <feOffset in="SourceAlpha" dx="0" dy="0" />
    <feGaussianBlur result="blurOut" stdDeviation="4.583" />
    <feFlood flood-color="rgb(13, 0, 71)" result="floodOut" />
    <feComposite operator="atop" in="floodOut" in2="blurOut" />
    <feComponentTransfer><feFuncA type="linear" slope="0.24"/></feComponentTransfer>
    <feMerge>
    <feMergeNode/>
    <feMergeNode in="SourceGraphic"/>
  </feMerge>
</filter>
<linearGradient id="PSgrad_0" x1="0%" x2="46.947%" y1="88.295%" y2="0%">
  <stop offset="0%" stop-color="rgb(166,122,255)" stop-opacity="1" />
  <stop offset="100%" stop-color="rgb(113,92,211)" stop-opacity="1" />
</linearGradient>

</defs>
<g filter="url(#Filter_0)">
<path fill-rule="evenodd"  fill="url(#PSgrad_0)"
 d="M38.031,22.000 L106.031,22.000 C114.868,22.000 122.031,29.163 122.031,38.000 L122.031,106.000 C122.031,114.836 114.868,122.000 106.031,122.000 L38.031,122.000 C29.195,122.000 22.031,114.836 22.031,106.000 L22.031,38.000 C22.031,29.163 29.195,22.000 38.031,22.000 Z"/>
</g>
<path fill-rule="evenodd"  stroke="rgb(255, 255, 255)" stroke-width="0.5px" stroke-linecap="butt" stroke-linejoin="miter" fill="rgb(255, 255, 255)"
 d="M99.635,64.495 C98.101,61.673 96.157,59.104 93.870,56.875 C93.293,56.322 92.522,56.030 91.732,56.064 C91.621,55.263 91.196,54.542 90.556,54.064 C87.724,51.965 84.564,50.369 81.211,49.344 C80.449,49.113 79.629,49.207 78.936,49.604 C78.471,48.940 77.765,48.494 76.975,48.363 C73.790,47.873 70.551,47.873 67.366,48.363 C66.576,48.494 65.870,48.940 65.405,49.604 C64.713,49.204 63.893,49.107 63.130,49.334 C59.769,50.360 56.603,51.959 53.766,54.064 C53.125,54.542 52.701,55.263 52.589,56.064 C51.799,56.030 51.029,56.322 50.452,56.875 C48.178,59.107 46.248,61.676 44.725,64.495 C44.333,65.224 44.255,66.086 44.510,66.876 C45.069,68.626 44.000,67.676 70.003,80.047 L65.444,82.448 L65.719,83.258 C66.935,86.920 70.831,88.883 74.422,87.643 C76.446,86.943 78.035,85.322 78.721,83.258 L78.995,82.448 L76.210,80.998 L77.328,80.998 C79.900,80.997 81.986,83.124 81.987,85.747 C81.987,87.414 81.131,88.959 79.730,89.819 C78.090,90.822 77.086,92.629 77.083,94.580 L77.083,97.000 L79.044,97.000 C79.044,94.740 78.721,92.759 80.731,91.529 C83.865,89.610 84.881,85.464 83.000,82.267 C82.729,81.806 82.405,81.380 82.035,80.998 C84.742,80.998 86.937,83.237 86.937,85.998 C86.937,89.865 90.010,92.999 93.801,92.999 L96.743,92.999 L96.743,90.999 L93.752,90.999 C91.044,90.999 88.849,88.760 88.849,85.998 C88.849,82.132 85.776,78.997 81.986,78.997 L76.593,78.997 L98.292,68.666 C99.767,67.971 100.410,66.188 99.729,64.684 C99.700,64.620 99.668,64.557 99.635,64.495 L99.635,64.495 ZM75.799,68.256 C76.573,68.766 77.181,68.686 79.034,69.606 C79.397,69.786 80.181,68.606 74.034,76.157 L75.799,68.256 ZM72.180,75.467 L70.533,67.996 C70.726,68.011 70.919,68.011 71.112,67.996 C72.563,67.886 73.220,68.046 73.837,67.996 L72.180,75.467 ZM68.572,68.256 L70.327,76.167 L65.052,69.706 C65.942,69.285 66.859,68.928 67.797,68.636 C68.072,68.549 68.333,68.421 68.572,68.256 L68.572,68.256 ZM63.199,70.566 L68.611,77.197 L60.483,73.327 C62.522,71.186 62.689,71.456 63.199,70.566 ZM81.162,70.566 C81.652,71.426 82.368,71.647 83.800,73.247 C83.898,73.367 84.780,72.877 75.749,77.247 L81.162,70.566 ZM79.868,51.354 C80.104,51.210 80.389,51.173 80.652,51.254 C83.792,52.224 86.752,53.721 89.408,55.684 C89.844,56.012 89.937,56.639 89.615,57.083 C89.602,57.101 89.589,57.118 89.575,57.135 C81.044,67.586 99.380,45.133 81.074,67.556 C80.358,68.426 79.819,67.556 77.152,66.716 C76.632,66.587 76.309,66.058 76.426,65.526 C79.672,50.774 79.358,51.654 79.868,51.354 L79.868,51.354 ZM67.033,50.764 C67.186,50.538 67.423,50.386 67.690,50.344 C70.673,49.884 73.707,49.884 76.691,50.344 C77.226,50.429 77.591,50.941 77.507,51.487 C77.504,51.509 77.500,51.532 77.495,51.554 C77.191,52.944 78.603,46.553 74.485,65.085 C74.298,66.246 73.582,65.996 72.180,65.996 C71.200,65.996 70.141,66.276 69.925,65.266 C66.729,50.854 66.630,51.374 67.033,50.764 L67.033,50.764 ZM54.952,55.674 C57.674,53.626 60.747,52.113 64.012,51.214 C64.480,51.202 64.890,51.529 64.993,51.994 L67.993,65.526 C68.111,66.055 67.793,66.583 67.278,66.716 C66.323,67.006 65.392,67.370 64.493,67.806 C64.091,68.006 63.607,67.903 63.316,67.556 C63.236,67.452 63.169,67.396 54.786,57.135 C54.433,56.716 54.480,56.084 54.891,55.724 C54.910,55.707 54.931,55.690 54.952,55.674 ZM46.892,66.856 C46.400,66.626 46.184,66.032 46.410,65.530 C46.419,65.508 46.430,65.487 46.441,65.466 C47.878,62.821 49.699,60.413 51.844,58.325 C52.237,57.945 52.858,57.962 53.230,58.362 C53.246,58.379 53.261,58.397 53.276,58.415 L61.434,68.416 C61.785,68.836 61.736,69.468 61.324,69.826 C61.299,69.847 61.274,69.868 61.247,69.886 C58.972,71.716 58.972,72.606 57.992,72.147 L46.892,66.856 ZM67.876,83.398 L72.180,81.128 L76.485,83.398 C75.189,85.823 72.211,86.717 69.834,85.395 C69.006,84.935 68.327,84.242 67.876,83.398 ZM97.988,66.256 C97.792,66.856 98.351,66.436 86.369,72.136 C85.388,72.597 85.388,71.667 83.113,69.876 C82.678,69.547 82.587,68.921 82.909,68.477 C82.927,68.453 82.946,68.429 82.966,68.406 C91.791,57.595 91.212,58.095 91.791,58.055 C92.059,58.040 92.321,58.137 92.517,58.325 C94.661,60.413 96.483,62.821 97.919,65.466 C98.048,65.708 98.073,65.994 97.988,66.256 L97.988,66.256 Z"/>
</svg>